<?xml version="1.0" encoding="utf-8"?>
<!-- Generator: Adobe Illustrator 19.0.0, SVG Export Plug-In . SVG Version: 6.00 Build 0)  -->
<svg version="1.1" id="Layer_1" xmlns="http://www.w3.org/2000/svg" xmlns:xlink="http://www.w3.org/1999/xlink" x="0px" y="0px"
	 viewBox="0 0 512 337.7" style="enable-background:new 0 0 512 337.7;" xml:space="preserve">
<style type="text/css">
	.st0{fill:#010101;}
</style>
<g id="XMLID_2_">
	<path id="XMLID_12_" class="st0" d="M330.9,47.9h48.7c4.7,0,6.7-5.9,3-8.8c-2-1.6-4.6-3.2-8.1-4.7c-0.6-0.3-1.3-0.4-2-0.4H198
		c-0.6,0-1.1,0.1-1.7,0.3c-3.4,1.3-16.1,6.6-13.4,15.2c0.2,0.7-0.7,16.4-0.4,17.7c0.1,0.3,0.1,0.7,0.1,1l-1.3,118.2
		c0,2.7-2.2,4.9-4.9,4.9h-2.9c-2.7,0-4.9-2.2-4.9-4.9l-1.2-114.6c0-2.7-2.2-4.9-4.9-4.9H64.3c-2.3,0-4.2,1.5-4.8,3.7L38.1,157
		c-0.1,0.4-0.1,0.8-0.1,1.2v71.1c0,2.7,2.2,4.9,4.9,4.9h4.7c2.1,0,3.9-1.3,4.6-3.3c6.3-18,72.9-81.3,122.5,0.9
		c0.9,1.5,2.5,2.4,4.2,2.4h67.2c2.1,0,4-1.3,4.7-3.3c5.8-16.8,69.9-82.3,122.1-1.1c1.6,2.5,5,3,7.3,1.1c2.7-2.2,6-5.5,8.1-9.6
		c0.4-0.7,0.5-1.4,0.5-2.2v-42.4c0-2.6-2-4.8-4.6-4.9l-51.7-2.8c-2.5-0.1-4.5-2.2-4.6-4.7l-0.9-23.4c-0.1-2.8,2.2-5.2,5-5.1
		l51.9,1.1c2.7,0.1,5-2.2,5-4.9l0,0c0-2.7-2.2-4.9-4.9-4.9h-52.3c-2.7,0-4.9-2.2-4.9-4.9v-25c0-2.8,2.2-2.9,5-2.8l52,0.1
		c2.8,0.1,5.1-2.1,5.1-4.9v-2.5c0-2.7-2.2-4.9-4.9-4.9h-52.9c-2.7,0-4.9-2.2-4.9-4.9V52.8C326,50.1,328.2,47.9,330.9,47.9z
		 M143.4,145H71.2c-3.2,0-5.5-2.9-4.8-6l10.2-43.7c0.5-2.2,2.5-3.8,4.8-3.8h61.9c2.7,0,4.9,2.2,4.9,4.9v43.7
		C148.3,142.9,146.1,145,143.4,145z"/>
	<path id="XMLID_11_" class="st0" d="M337.3,62.1v7.4c0,2.7,2.2,4.9,4.9,4.9h127c2.7,0,4.9-2.2,4.9-4.9v-7.4c0-2.7-2.2-4.9-4.9-4.9
		h-127C339.5,57.2,337.3,59.4,337.3,62.1z"/>
	<path id="XMLID_10_" class="st0" d="M342.2,102.8H444c2.7,0,4.9,2.2,4.9,4.9v5.7c0,2.7-2.2,4.9-4.9,4.9H342.2
		c-2.7,0-4.9-2.2-4.9-4.9v-5.7C337.3,105,339.5,102.8,342.2,102.8z"/>
	<path id="XMLID_9_" class="st0" d="M342.2,145h73.4c2.7,0,4.9,2.2,4.9,4.9v6.7c0,2.7-2.2,4.9-4.9,4.9h-73.4c-2.7,0-4.9-2.2-4.9-4.9
		V150C337.3,147.2,339.5,145,342.2,145z"/>
	<path id="XMLID_6_" class="st0" d="M114.3,209.8c-25.4,0-45.9,21-45.9,46.9c0,25.9,20.6,46.9,45.9,46.9c25.4,0,45.9-21,45.9-46.9
		C160.2,230.8,139.6,209.8,114.3,209.8z M114.3,273.9c-9.3,0-16.8-7.7-16.8-17.2c0-9.5,7.6-17.2,16.8-17.2c9.3,0,16.8,7.7,16.8,17.2
		C131.1,266.2,123.6,273.9,114.3,273.9z"/>
	<path id="XMLID_3_" class="st0" d="M313.8,209.8c-25.4,0-45.9,21-45.9,46.9c0,25.9,20.6,46.9,45.9,46.9c25.4,0,45.9-21,45.9-46.9
		C359.7,230.8,339.2,209.8,313.8,209.8z M313.8,273.9c-9.3,0-16.8-7.7-16.8-17.2c0-9.5,7.6-17.2,16.8-17.2c9.3,0,16.8,7.7,16.8,17.2
		C330.7,266.2,323.1,273.9,313.8,273.9z"/>
</g>
</svg>
