<?xml version="1.0" encoding="utf-8"?>
<!-- Generator: Adobe Illustrator 19.0.0, SVG Export Plug-In . SVG Version: 6.00 Build 0)  -->
<svg version="1.1" id="Layer_1" xmlns="http://www.w3.org/2000/svg" xmlns:xlink="http://www.w3.org/1999/xlink" x="0px" y="0px"
	 viewBox="0 0 512 337.7" style="enable-background:new 0 0 512 337.7;" xml:space="preserve">
<style type="text/css">
	.st0{fill:#FFFFFF;}
</style>
<g id="XMLID_46_">
	<path id="XMLID_58_" class="st0" d="M223,76.2l4.2,3.4l3.2-8.3L223,76.2z M223,76.2l4.2,3.4l3.2-8.3L223,76.2z M223,76.2l4.2,3.4
		l3.2-8.3L223,76.2z M259.9,95.8c-0.3-0.8-0.8-1.4-1.4-1.9l-2.1-1.7l-9.2,11.5l2.1,1.7c0.6,0.5,1.3,0.8,2.1,1
		c0.8,0.1,1.6,0.1,2.4-0.1c0.8-0.2,1.6-0.5,2.5-1c0.8-0.5,1.5-1.2,2.2-2c0.6-0.8,1.1-1.6,1.4-2.5c0.3-0.9,0.5-1.8,0.5-2.6
		C260.4,97.4,260.3,96.6,259.9,95.8z M259.9,95.8c-0.3-0.8-0.8-1.4-1.4-1.9l-2.1-1.7l-9.2,11.5l2.1,1.7c0.6,0.5,1.3,0.8,2.1,1
		c0.8,0.1,1.6,0.1,2.4-0.1c0.8-0.2,1.6-0.5,2.5-1c0.8-0.5,1.5-1.2,2.2-2c0.6-0.8,1.1-1.6,1.4-2.5c0.3-0.9,0.5-1.8,0.5-2.6
		C260.4,97.4,260.3,96.6,259.9,95.8z M223,76.2l4.2,3.4l3.2-8.3L223,76.2z M223,76.2l4.2,3.4l3.2-8.3L223,76.2z M259.9,95.8
		c-0.3-0.8-0.8-1.4-1.4-1.9l-2.1-1.7l-9.2,11.5l2.1,1.7c0.6,0.5,1.3,0.8,2.1,1c0.8,0.1,1.6,0.1,2.4-0.1c0.8-0.2,1.6-0.5,2.5-1
		c0.8-0.5,1.5-1.2,2.2-2c0.6-0.8,1.1-1.6,1.4-2.5c0.3-0.9,0.5-1.8,0.5-2.6C260.4,97.4,260.3,96.6,259.9,95.8z M274.4,107.1
		c-0.3-0.7-0.8-1.4-1.5-1.9c-0.7-0.6-1.5-0.9-2.3-1.1c-0.8-0.1-1.7-0.1-2.5,0.1c-0.8,0.2-1.6,0.6-2.4,1.1c-0.8,0.5-1.5,1.2-2.1,2
		c-0.7,0.9-1.3,1.8-1.6,2.7c-0.3,0.9-0.5,1.8-0.4,2.6c0,0.8,0.2,1.6,0.5,2.4c0.3,0.8,0.8,1.4,1.5,2c0.7,0.6,1.5,0.9,2.3,1.1
		c0.8,0.2,1.7,0.1,2.5-0.1c0.8-0.2,1.6-0.6,2.4-1.1c0.8-0.5,1.5-1.2,2.1-2c0.6-0.8,1.1-1.7,1.5-2.6c0.3-0.9,0.5-1.9,0.5-2.7
		C274.9,108.7,274.7,107.9,274.4,107.1z M288.8,118.6c-0.3-0.7-0.8-1.4-1.5-1.9c-0.7-0.6-1.5-0.9-2.3-1.1c-0.9-0.1-1.7-0.1-2.5,0.1
		c-0.8,0.2-1.6,0.6-2.4,1.1c-0.8,0.5-1.5,1.2-2.1,2c-0.7,0.9-1.3,1.8-1.6,2.7c-0.3,0.9-0.5,1.8-0.4,2.6c0,0.8,0.2,1.6,0.5,2.4
		c0.3,0.8,0.8,1.4,1.5,2c0.7,0.6,1.5,0.9,2.3,1.1c0.8,0.2,1.7,0.1,2.5-0.1c0.8-0.2,1.6-0.6,2.4-1.1c0.8-0.5,1.5-1.2,2.1-2
		c0.6-0.8,1.1-1.7,1.5-2.6c0.4-0.9,0.5-1.9,0.5-2.7C289.3,120.2,289.1,119.4,288.8,118.6z M288.8,118.6c-0.3-0.7-0.8-1.4-1.5-1.9
		c-0.7-0.6-1.5-0.9-2.3-1.1c-0.9-0.1-1.7-0.1-2.5,0.1c-0.8,0.2-1.6,0.6-2.4,1.1c-0.8,0.5-1.5,1.2-2.1,2c-0.7,0.9-1.3,1.8-1.6,2.7
		c-0.3,0.9-0.5,1.8-0.4,2.6c0,0.8,0.2,1.6,0.5,2.4c0.3,0.8,0.8,1.4,1.5,2c0.7,0.6,1.5,0.9,2.3,1.1c0.8,0.2,1.7,0.1,2.5-0.1
		c0.8-0.2,1.6-0.6,2.4-1.1c0.8-0.5,1.5-1.2,2.1-2c0.6-0.8,1.1-1.7,1.5-2.6c0.4-0.9,0.5-1.9,0.5-2.7
		C289.3,120.2,289.1,119.4,288.8,118.6z M274.4,107.1c-0.3-0.7-0.8-1.4-1.5-1.9c-0.7-0.6-1.5-0.9-2.3-1.1c-0.8-0.1-1.7-0.1-2.5,0.1
		c-0.8,0.2-1.6,0.6-2.4,1.1c-0.8,0.5-1.5,1.2-2.1,2c-0.7,0.9-1.3,1.8-1.6,2.7c-0.3,0.9-0.5,1.8-0.4,2.6c0,0.8,0.2,1.6,0.5,2.4
		c0.3,0.8,0.8,1.4,1.5,2c0.7,0.6,1.5,0.9,2.3,1.1c0.8,0.2,1.7,0.1,2.5-0.1c0.8-0.2,1.6-0.6,2.4-1.1c0.8-0.5,1.5-1.2,2.1-2
		c0.6-0.8,1.1-1.7,1.5-2.6c0.3-0.9,0.5-1.9,0.5-2.7C274.9,108.7,274.7,107.9,274.4,107.1z M259.9,95.8c-0.3-0.8-0.8-1.4-1.4-1.9
		l-2.1-1.7l-9.2,11.5l2.1,1.7c0.6,0.5,1.3,0.8,2.1,1c0.8,0.1,1.6,0.1,2.4-0.1c0.8-0.2,1.6-0.5,2.5-1c0.8-0.5,1.5-1.2,2.2-2
		c0.6-0.8,1.1-1.6,1.4-2.5c0.3-0.9,0.5-1.8,0.5-2.6C260.4,97.4,260.3,96.6,259.9,95.8z M223,76.2l4.2,3.4l3.2-8.3L223,76.2z
		 M329.9,96.2l50.8,0.1c2.7,0.1,5-2.1,5-4.8v-2.5c0-2.7-2.1-4.8-4.8-4.8h-51.7c-2.7,0-4.8-2.1-4.8-4.8v-24c0-2.7,2.1-4.8,4.8-4.8
		h47.6c4.5,0,6.5-5.7,3-8.6c-1.9-1.5-4.5-3.1-7.9-4.6c-0.6-0.3-1.3-0.4-1.9-0.4H199.4c-0.6,0-1.1,0.1-1.6,0.3
		c-3.4,1.2-15.7,6.4-13.1,14.9c0.2,0.6-0.7,16-0.4,17.3c0.1,0.3,0.1,0.6,0.1,1l-1.2,115.4c0,2.6-2.2,4.7-4.8,4.7h-2.8
		c-2.6,0-4.8-2.1-4.8-4.7l-1.2-111.9c0-2.6-2.2-4.7-4.8-4.7h-96c-2.2,0-4.1,1.5-4.6,3.6l-20.9,84.2c-0.1,0.4-0.2,0.8-0.2,1.2v69.5
		c0,2.7,2.1,4.8,4.8,4.8h4.6c2.1,0,3.8-1.3,4.5-3.3c6.2-17.6,71.2-79.4,119.6,0.9c0.9,1.5,2.4,2.4,4.1,2.4h65.6
		c2.1,0,3.9-1.3,4.6-3.2c5.7-16.4,68.3-80.3,119.2-1.1c1.6,2.4,4.9,2.9,7.1,1.1c2.6-2.1,5.8-5.4,8-9.4c0.3-0.7,0.5-1.4,0.5-2.1
		v-41.4c0-2.6-2-4.6-4.5-4.8l-50.5-2.7c-2.5-0.1-4.4-2.1-4.5-4.6l-0.9-22.8c-0.1-2.7,2.1-5,4.9-5l50.7,1.1c2.7,0.1,4.9-2.1,4.9-4.8
		c0-1.3-0.5-2.5-1.4-3.4c-0.9-0.9-2.1-1.4-3.4-1.4h-51.1c-2.7,0-4.8-2.1-4.8-4.8V99C325,96.2,327.2,96.1,329.9,96.2z M150.8,140.8
		c0,2.7-2.1,4.8-4.8,4.8H75.6c-3.1,0-5.4-2.9-4.6-5.9l10-42.7c0.5-2.1,2.4-3.7,4.6-3.7H146c2.7,0,4.8,2.1,4.8,4.8V140.8z
		 M211.7,78.1l-4.4-3.6l1.4-1.7l1.5,1.2l9.1-11.4l-15.3,9.3l-1.5-1.2l5.7-17l-9.2,11.4l1.4,1.1l-1.4,1.7l-4.4-3.5l1.4-1.7l1.3,1
		l9-11.3l-1.3-1l1.5-1.9l4.3,3.5l-5.9,16.3l14.7-9.3l4.1,3.3l-1.5,1.9l-1.3-1l-9,11.3l1.3,1L211.7,78.1z M226.8,90.2l-4.4-3.5
		l1.4-1.7l1.1,0.9l1.6-4.2l-5.2-4.2l-3.8,2.5l1.4,1.1l-1.3,1.7l-4.4-3.5l1.3-1.7l1.2,0.9l14.8-9.8l2.7,2.1l-6.3,16.6l1.4,1.1
		L226.8,90.2z M237.5,98.8l3.5-17.4L232.6,92l1.4,1.1l-1.4,1.7l-4.4-3.6l1.4-1.7l1.3,1l9.2-11.5l-1.3-1l1.4-1.7l3.7,2.9l-3.5,17.2
		l0.4-0.4l8-10l-1.5-1.2l1.4-1.7l4.4,3.5l-1.4,1.7l-1.2-0.9l-10.5,13.2L237.5,98.8z M256.5,107.9c-0.7,0.3-1.5,0.6-2.2,0.7
		c-0.8,0.1-1.5,0.2-2.2,0.1c-0.8-0.1-1.5-0.2-2.2-0.5c-0.7-0.3-1.4-0.7-2-1.2l-5.1-4.1l1.4-1.7l1.3,1l9.2-11.5l-1.3-1l1.4-1.7
		l5.1,4.1c0.6,0.5,1.1,1.1,1.6,1.7c0.4,0.6,0.8,1.3,1,2c0.2,0.7,0.3,1.5,0.4,2.2c0,0.8,0,1.5-0.2,2.3c-0.2,0.8-0.4,1.5-0.8,2.3
		c-0.3,0.8-0.8,1.5-1.4,2.1c-0.5,0.7-1.2,1.3-1.8,1.8C257.9,107.2,257.2,107.6,256.5,107.9z M271.8,119c-1.1,0.7-2.2,1.1-3.3,1.4
		c-1.1,0.3-2.3,0.2-3.4,0c-1.1-0.2-2.2-0.7-3.1-1.5c-0.9-0.8-1.6-1.6-2.1-2.7c-0.5-1-0.7-2.1-0.8-3.3c-0.1-1.2,0.2-2.4,0.6-3.6
		c0.4-1.2,1.1-2.3,1.9-3.4c0.9-1.1,1.8-2,2.9-2.6c1.1-0.7,2.2-1.1,3.3-1.4c1.1-0.2,2.3-0.2,3.4,0c1.1,0.2,2.1,0.7,3.1,1.5
		c1,0.8,1.7,1.7,2.2,2.7c0.5,1,0.7,2.1,0.8,3.3c0,1.1-0.2,2.3-0.6,3.5c-0.4,1.2-1.1,2.3-1.9,3.4C273.9,117.5,272.9,118.3,271.8,119z
		 M279.5,131.9c-1.1-0.2-2.2-0.8-3.1-1.5c-0.9-0.8-1.6-1.6-2.1-2.7c-0.5-1-0.7-2.1-0.8-3.3c0-1.2,0.2-2.4,0.6-3.6
		c0.4-1.2,1.1-2.3,1.9-3.4c0.9-1.1,1.8-2,2.9-2.6c1.1-0.7,2.2-1.1,3.3-1.4c1.1-0.2,2.3-0.2,3.4,0c1.1,0.3,2.2,0.8,3.1,1.5
		c1,0.8,1.7,1.7,2.2,2.7c0.5,1,0.7,2.1,0.8,3.3c0,1.1-0.2,2.3-0.6,3.5c-0.4,1.2-1.1,2.3-1.9,3.4c-0.9,1.1-1.8,1.9-2.9,2.6
		c-1.1,0.7-2.2,1.1-3.3,1.4C281.8,132.1,280.7,132.1,279.5,131.9z M304.7,132.5c-0.2,0.7-0.6,1.4-1,2c-0.5,0.6-1.1,1.1-1.9,1.3
		c-0.7,0.3-1.5,0.3-2.4,0.2c0.2,0.4,0.3,0.8,0.3,1.2c0.1,0.4,0.1,0.8,0,1.2c0,0.4-0.1,0.8-0.3,1.2c-0.1,0.4-0.3,0.7-0.6,1
		c-0.5,0.6-1.1,1.1-1.7,1.5c-0.6,0.4-1.3,0.6-2,0.7c-0.7,0.1-1.4,0.1-2-0.1c-0.7-0.2-1.3-0.5-1.8-0.9l-6.2-5l1.4-1.7l1.3,1l9.2-11.5
		l-1.3-1l1.4-1.7l6.1,5c0.6,0.4,1,1,1.3,1.6c0.3,0.6,0.5,1.3,0.5,1.9C305,131.1,304.9,131.8,304.7,132.5z M301.8,128.6l-3.1-2.5
		l-3.9,4.8l3.1,2.5c0.3,0.2,0.6,0.4,1,0.4c0.3,0.1,0.7,0.1,1,0c0.3-0.1,0.7-0.2,1-0.4c0.3-0.2,0.6-0.4,0.8-0.7
		c0.3-0.3,0.5-0.7,0.6-1.1c0.1-0.4,0.2-0.8,0.2-1.2c0-0.4,0-0.8-0.2-1.1C302.3,129.2,302.1,128.9,301.8,128.6z M296.6,135.3
		l-3.2-2.5l-3.9,4.9l3.2,2.5c0.3,0.2,0.6,0.4,1,0.4c0.4,0,0.8,0,1.1-0.1c0.4-0.1,0.8-0.3,1.1-0.5c0.3-0.2,0.7-0.5,0.9-0.9
		c0.2-0.3,0.4-0.6,0.5-1c0.1-0.3,0.2-0.7,0.1-1.1c0-0.3-0.1-0.7-0.2-1C297.1,135.8,296.9,135.5,296.6,135.3z M287.3,126.4
		c0.6-0.8,1.1-1.7,1.5-2.6c0.4-0.9,0.5-1.9,0.5-2.7c0-0.9-0.2-1.7-0.6-2.4c-0.3-0.7-0.8-1.4-1.5-1.9c-0.7-0.6-1.5-0.9-2.3-1.1
		c-0.9-0.1-1.7-0.1-2.5,0.1c-0.8,0.2-1.6,0.6-2.4,1.1c-0.8,0.5-1.5,1.2-2.1,2c-0.7,0.9-1.3,1.8-1.6,2.7c-0.3,0.9-0.5,1.8-0.4,2.6
		c0,0.8,0.2,1.6,0.5,2.4c0.3,0.8,0.8,1.4,1.5,2c0.7,0.6,1.5,0.9,2.3,1.1c0.8,0.2,1.7,0.1,2.5-0.1c0.8-0.2,1.6-0.6,2.4-1.1
		C285.9,127.9,286.7,127.2,287.3,126.4z M274.4,107.1c-0.3-0.7-0.8-1.4-1.5-1.9c-0.7-0.6-1.5-0.9-2.3-1.1c-0.8-0.1-1.7-0.1-2.5,0.1
		c-0.8,0.2-1.6,0.6-2.4,1.1c-0.8,0.5-1.5,1.2-2.1,2c-0.7,0.9-1.3,1.8-1.6,2.7c-0.3,0.9-0.5,1.8-0.4,2.6c0,0.8,0.2,1.6,0.5,2.4
		c0.3,0.8,0.8,1.4,1.5,2c0.7,0.6,1.5,0.9,2.3,1.1c0.8,0.2,1.7,0.1,2.5-0.1c0.8-0.2,1.6-0.6,2.4-1.1c0.8-0.5,1.5-1.2,2.1-2
		c0.6-0.8,1.1-1.7,1.5-2.6c0.3-0.9,0.5-1.9,0.5-2.7C274.9,108.7,274.7,107.9,274.4,107.1z M260.4,98.2c0-0.8-0.2-1.6-0.5-2.4
		c-0.3-0.8-0.8-1.4-1.4-1.9l-2.1-1.7l-9.2,11.5l2.1,1.7c0.6,0.5,1.3,0.8,2.1,1c0.8,0.1,1.6,0.1,2.4-0.1c0.8-0.2,1.6-0.5,2.5-1
		c0.8-0.5,1.5-1.2,2.2-2c0.6-0.8,1.1-1.6,1.4-2.5C260.3,99.9,260.4,99.1,260.4,98.2z M230.4,71.2l-7.4,5l4.2,3.4L230.4,71.2z
		 M223,76.2l4.2,3.4l3.2-8.3L223,76.2z M259.9,95.8c-0.3-0.8-0.8-1.4-1.4-1.9l-2.1-1.7l-9.2,11.5l2.1,1.7c0.6,0.5,1.3,0.8,2.1,1
		c0.8,0.1,1.6,0.1,2.4-0.1c0.8-0.2,1.6-0.5,2.5-1c0.8-0.5,1.5-1.2,2.2-2c0.6-0.8,1.1-1.6,1.4-2.5c0.3-0.9,0.5-1.8,0.5-2.6
		C260.4,97.4,260.3,96.6,259.9,95.8z M274.4,107.1c-0.3-0.7-0.8-1.4-1.5-1.9c-0.7-0.6-1.5-0.9-2.3-1.1c-0.8-0.1-1.7-0.1-2.5,0.1
		c-0.8,0.2-1.6,0.6-2.4,1.1c-0.8,0.5-1.5,1.2-2.1,2c-0.7,0.9-1.3,1.8-1.6,2.7c-0.3,0.9-0.5,1.8-0.4,2.6c0,0.8,0.2,1.6,0.5,2.4
		c0.3,0.8,0.8,1.4,1.5,2c0.7,0.6,1.5,0.9,2.3,1.1c0.8,0.2,1.7,0.1,2.5-0.1c0.8-0.2,1.6-0.6,2.4-1.1c0.8-0.5,1.5-1.2,2.1-2
		c0.6-0.8,1.1-1.7,1.5-2.6c0.3-0.9,0.5-1.9,0.5-2.7C274.9,108.7,274.7,107.9,274.4,107.1z M274.4,107.1c-0.3-0.7-0.8-1.4-1.5-1.9
		c-0.7-0.6-1.5-0.9-2.3-1.1c-0.8-0.1-1.7-0.1-2.5,0.1c-0.8,0.2-1.6,0.6-2.4,1.1c-0.8,0.5-1.5,1.2-2.1,2c-0.7,0.9-1.3,1.8-1.6,2.7
		c-0.3,0.9-0.5,1.8-0.4,2.6c0,0.8,0.2,1.6,0.5,2.4c0.3,0.8,0.8,1.4,1.5,2c0.7,0.6,1.5,0.9,2.3,1.1c0.8,0.2,1.7,0.1,2.5-0.1
		c0.8-0.2,1.6-0.6,2.4-1.1c0.8-0.5,1.5-1.2,2.1-2c0.6-0.8,1.1-1.7,1.5-2.6c0.3-0.9,0.5-1.9,0.5-2.7
		C274.9,108.7,274.7,107.9,274.4,107.1z M259.9,95.8c-0.3-0.8-0.8-1.4-1.4-1.9l-2.1-1.7l-9.2,11.5l2.1,1.7c0.6,0.5,1.3,0.8,2.1,1
		c0.8,0.1,1.6,0.1,2.4-0.1c0.8-0.2,1.6-0.5,2.5-1c0.8-0.5,1.5-1.2,2.2-2c0.6-0.8,1.1-1.6,1.4-2.5c0.3-0.9,0.5-1.8,0.5-2.6
		C260.4,97.4,260.3,96.6,259.9,95.8z M223,76.2l4.2,3.4l3.2-8.3L223,76.2z M223,76.2l4.2,3.4l3.2-8.3L223,76.2z M223,76.2l4.2,3.4
		l3.2-8.3L223,76.2z"/>
	<path id="XMLID_7_" class="st0" d="M335.4,64.6v7.2c0,2.6,2.1,4.8,4.8,4.8h124c2.6,0,4.8-2.1,4.8-4.8v-7.2c0-2.6-2.1-4.8-4.8-4.8
		h-124C337.5,59.8,335.4,61.9,335.4,64.6z"/>
	<path id="XMLID_6_" class="st0" d="M340.2,104.3h99.5c2.6,0,4.8,2.1,4.8,4.8v5.6c0,2.6-2.1,4.8-4.8,4.8h-99.5
		c-2.6,0-4.8-2.1-4.8-4.8v-5.6C335.4,106.4,337.5,104.3,340.2,104.3z"/>
	<path id="XMLID_5_" class="st0" d="M340.2,145.6h71.7c2.6,0,4.8,2.1,4.8,4.8v6.6c0,2.6-2.1,4.8-4.8,4.8h-71.7
		c-2.6,0-4.8-2.1-4.8-4.8v-6.6C335.4,147.7,337.5,145.6,340.2,145.6z"/>
	<path id="XMLID_51_" class="st0" d="M117.6,208.8c-24.8,0-44.8,20.5-44.8,45.8s20.1,45.8,44.8,45.8c24.8,0,44.8-20.5,44.8-45.8
		S142.4,208.8,117.6,208.8z M117.6,271.5c-9.1,0-16.5-7.5-16.5-16.8c0-9.3,7.4-16.8,16.5-16.8c9.1,0,16.5,7.5,16.5,16.8
		C134,263.9,126.7,271.5,117.6,271.5z"/>
	<path id="XMLID_47_" class="st0" d="M312.5,208.8c-24.8,0-44.8,20.5-44.8,45.8s20.1,45.8,44.8,45.8c24.8,0,44.8-20.5,44.8-45.8
		S337.2,208.8,312.5,208.8z M312.5,271.5c-9.1,0-16.5-7.5-16.5-16.8c0-9.3,7.4-16.8,16.5-16.8c9.1,0,16.5,7.5,16.5,16.8
		C328.9,263.9,321.6,271.5,312.5,271.5z"/>
</g>
</svg>
